<svg xmlns="http://www.w3.org/2000/svg" xmlns:xlink="http://www.w3.org/1999/xlink" width="20" height="20" viewBox="0 0 20 20">
  <defs>
    <clipPath id="clip-path">
      <rect id="Rectangle_4709" data-name="Rectangle 4709" width="20" height="20" transform="translate(74 222)" fill="#e3e3e4" stroke="#707070" stroke-width="1"/>
    </clipPath>
  </defs>
  <g id="Mask_Group_503" data-name="Mask Group 503" transform="translate(-74 -222)" clip-path="url(#clip-path)">
    <g id="person-circle-outline" transform="translate(74 222)">
      <path id="Path_46412" data-name="Path 46412" d="M12.907,2.769a10,10,0,1,0,9.859,9.861A10.013,10.013,0,0,0,12.907,2.769ZM18.985,18.5a.192.192,0,0,1-.3-.015,5.974,5.974,0,0,0-1.555-1.422,8.163,8.163,0,0,0-4.366-1.218A8.164,8.164,0,0,0,8.4,17.063a5.972,5.972,0,0,0-1.555,1.422.192.192,0,0,1-.3.015,8.428,8.428,0,0,1-2.244-5.588,8.461,8.461,0,1,1,16.921-.144A8.428,8.428,0,0,1,18.985,18.5Z" transform="translate(-2.768 -2.768)" fill="#e3e3e4"/>
      <path id="Path_46413" data-name="Path 46413" d="M14.114,8.307a3.177,3.177,0,0,0-3.259,3.5,3.548,3.548,0,0,0,3.259,3.425A3.55,3.55,0,0,0,17.373,11.8a3.229,3.229,0,0,0-.85-2.491A3.264,3.264,0,0,0,14.114,8.307Z" transform="translate(-4.114 -3.691)" fill="#e3e3e4"/>
    </g>
  </g>
</svg>
